<?xml version="1.0" encoding="utf-8"?>
<!-- Generator: Adobe Illustrator 25.2.1, SVG Export Plug-In . SVG Version: 6.00 Build 0)  -->
<svg version="1.1" id="Layer_1" xmlns="http://www.w3.org/2000/svg" xmlns:xlink="http://www.w3.org/1999/xlink" x="0px" y="0px"
	 viewBox="0 0 284.3 284.3" style="enable-background:new 0 0 284.3 284.3;" xml:space="preserve">
<style type="text/css">
	.st0{fill:#444C56;}
	.st1{fill:#FFFFFF;}
	.st2{fill:#846F75;}
	.st3{fill:#F9B087;}
	.st4{fill:#EBE7F2;}
</style>
<rect class="st0" width="284.3" height="284.3"/>
<circle class="st1" cx="142.1" cy="142.1" r="142.1"/>
<path class="st2" d="M157.2,152.1V47.8c0-1.4-1.1-2.5-2.5-2.5H50.4c-1.4,0-2.5,1.1-2.5,2.5v104.3c0,1.4,1.1,2.5,2.5,2.5h104.3
	C156.1,154.6,157.2,153.5,157.2,152.1z M152.2,149.6H52.9V50.3h99.3V149.6z"/>
<path class="st2" d="M239,129.6h-74.3c-1.4,0-2.5,1.1-2.5,2.5c0,1.4,1.1,2.5,2.5,2.5h71.8v99.3h-99.3v-71.8c0-1.4-1.1-2.5-2.5-2.5
	c-1.4,0-2.5,1.1-2.5,2.5v74.3c0,1.4,1.1,2.5,2.5,2.5H239c1.4,0,2.5-1.1,2.5-2.5V132.1C241.5,130.7,240.4,129.6,239,129.6z"/>
<path class="st2" d="M124.4,99.6H87.1c-1.4,0-2.5,1.1-2.5,2.5s1.1,2.5,2.5,2.5h37.3c1.4,0,2.5-1.1,2.5-2.5S125.8,99.6,124.4,99.6
	L124.4,99.6z"/>
<path class="st2" d="M87.1,119.3h20.8c1.4,0,2.5-1.1,2.5-2.5s-1.1-2.5-2.5-2.5H87.1c-1.4,0-2.5,1.1-2.5,2.5S85.7,119.3,87.1,119.3z"
	/>
<path class="st2" d="M138.4,114.3h-20.5c-1.4,0-2.5,1.1-2.5,2.5s1.1,2.5,2.5,2.5h20.5c1.4,0,2.5-1.1,2.5-2.5
	S139.8,114.3,138.4,114.3z"/>
<path class="st2" d="M87.1,134h20.8c1.4,0,2.5-1.1,2.5-2.5s-1.1-2.5-2.5-2.5H87.1c-1.4,0-2.5,1.1-2.5,2.5S85.7,134,87.1,134z"/>
<path class="st2" d="M138.4,129h-20.5c-1.4,0-2.5,1.1-2.5,2.5s1.1,2.5,2.5,2.5h20.5c1.4,0,2.5-1.1,2.5-2.5S139.8,129,138.4,129z"/>
<path class="st3" d="M77.1,104.6H66.6c-1.4,0-2.5-1.1-2.5-2.5s1.1-2.5,2.5-2.5h10.5c1.4,0,2.5,1.1,2.5,2.5S78.5,104.6,77.1,104.6z"
	/>
<path class="st3" d="M218.4,104c-1-1-2.6-1-3.5,0l-6.7,6.7v-25c0-1.4-1.1-2.5-2.5-2.5h-39.2c-1.4,0-2.5,1.1-2.5,2.5s1.1,2.5,2.5,2.5
	h36.7v22.5l-6.7-6.7c-1-1-2.6-0.9-3.5,0.1c-0.9,1-0.9,2.5,0,3.5l11,11c1,1,2.6,1,3.5,0l11-11C219.4,106.6,219.4,105,218.4,104z"/>
<path class="st3" d="M119.8,202.4l-11-11c-1-1-2.6-1-3.5,0c-1,1-1,2.5,0,3.5l6.7,6.7H89.5v-36.7c0-1.4-1.1-2.5-2.5-2.5
	s-2.5,1.1-2.5,2.5v39.2c0,1.4,1.1,2.5,2.5,2.5h25l-6.7,6.7c-1,1-1,2.6,0,3.5c1,1,2.6,1,3.5,0c0,0,0,0,0,0l11-11
	C120.8,204.9,120.8,203.3,119.8,202.4C119.8,202.4,119.8,202.4,119.8,202.4z"/>
<path class="st2" d="M200.8,173.8v11.9H195c-0.6,0-1.1,0.5-1.1,1.1s0.5,1.1,1.1,1.1h5.8v11.4c0,1.8,1.5,3.3,3.3,3.3h5.8
	c0.6,0,1.1-0.5,1.1-1.1s-0.5-1.1-1.1-1.1h-5.8c-0.7,0-1.2-0.5-1.2-1.2v-25.5c0-0.7,0.5-1.2,1.2-1.2h5.8c0.6,0,1.1-0.5,1.1-1.1
	s-0.5-1.1-1.1-1.1h-5.8C202.3,170.4,200.8,171.9,200.8,173.8z"/>
<path class="st2" d="M196,227.4v-22.3c0-0.6-0.5-1.1-1.1-1.1h-14.5c-0.6,0-1.1,0.5-1.1,1.1v9.8h-4.8c-0.7,0-1.2-0.5-1.2-1.2v-26h7.1
	c0.6,0,1.1-0.5,1.1-1.1s-0.5-1.1-1.1-1.1h-7.1v-26.4c0-0.7,0.5-1.2,1.2-1.2h4.8v10.3c0,0.6,0.5,1.1,1.1,1.1H195
	c0.6,0,1.1-0.5,1.1-1.1v-22.3c0-0.6-0.5-1.1-1.1-1.1h-14.5c-0.6,0-1.1,0.5-1.1,1.1v9.8h-4.8c-1.8,0-3.3,1.5-3.3,3.3v26.4h-5.4
	c-0.6,0-1.1,0.5-1.1,1.1s0.5,1.1,1.1,1.1h5.4v26c0,1.8,1.5,3.3,3.3,3.3h4.8v10.3c0,0.6,0.5,1.1,1.1,1.1H195
	C195.6,228.5,196,228,196,227.4C196,227.4,196,227.4,196,227.4z M193.9,147.1v20.1h-12.4v-20.1H193.9z M181.5,226.3v-20.1h12.4v20.1
	L181.5,226.3z"/>
<path class="st3" d="M179.4,197.9v-22.3c0-0.6,0.5-1.1,1.1-1.1H195c0.6,0,1.1,0.5,1.1,1.1v22.3c0,0.6-0.5,1.1-1.1,1.1h-14.5
	C179.8,198.9,179.4,198.5,179.4,197.9z M181.5,176.7v20.1h12.4v-20.1H181.5z"/>
<path class="st3" d="M208.9,183.1v-22.3c0-0.6,0.5-1.1,1.1-1.1h14.5c0.6,0,1.1,0.5,1.1,1.1v22.3c0,0.6-0.5,1.1-1.1,1.1H210
	C209.4,184.2,208.9,183.7,208.9,183.1z M211,161.9V182h12.4v-20.1H211z"/>
<path class="st3" d="M208.9,212.6v-22.3c0-0.6,0.5-1.1,1.1-1.1h14.5c0.6,0,1.1,0.5,1.1,1.1v22.3c0,0.6-0.5,1.1-1.1,1.1H210
	C209.4,213.7,208.9,213.2,208.9,212.6z M211,191.4v20.1h12.4v-20.1H211z"/>
<path class="st3" d="M148.1,207v-7.5c0-0.6,0.5-1.1,1.1-1.1s1.1,0.5,1.1,1.1v6.4h14.2v-38.3h-14.2v5.7c0,0.6-0.5,1.1-1.1,1.1
	s-1.1-0.5-1.1-1.1v-6.7c0-0.6,0.5-1.1,1.1-1.1h16.3c0.6,0,1.1,0.5,1.1,1.1V207c0,0.6-0.5,1.1-1.1,1.1h-16.3
	C148.6,208,148.1,207.5,148.1,207z"/>
<path class="st2" d="M146.4,181.7h-1.2c-1.7,0-3.1,1.4-3.1,3.1v3.4c0,1.7,1.4,3.1,3.1,3.1h1.2v1.1c0,1.7,1.4,3.1,3.1,3.1h3.3
	c1.7,0,3.1-1.4,3.1-3.1v-1.1h1.1c1.7,0,3.1-1.4,3.1-3.1v-3.4c0-1.7-1.4-3.1-3.1-3.1h-1.1v-1.1c0-1.7-1.4-3.1-3.1-3.1h-3.3
	c-1.7,0-3.1,1.4-3.1,3.1V181.7z M157,183c1,0,1.8,0.8,1.8,1.8v3.4c0,1-0.8,1.8-1.8,1.8h-4.5c-0.4,0-0.7,0.3-0.7,0.7
	c0,0.4,0.3,0.7,0.7,0.7h2v1.1c0,1-0.8,1.8-1.8,1.8h-3.3c-1,0-1.8-0.8-1.8-1.8V189c0-1,0.8-1.8,1.8-1.8h3.3c1.7,0,3.1-1.4,3.1-3.1
	V183H157z M149.5,178.8h3.3c1,0,1.8,0.8,1.8,1.8v3.5c0,1-0.8,1.8-1.8,1.8h-3.3c-1.7,0-3.1,1.4-3.1,3.1v1.1h-1.2
	c-1,0-1.8-0.8-1.8-1.8v-3.4c0-1,0.8-1.8,1.8-1.8h4.5c0.4,0,0.7-0.3,0.7-0.7c0-0.4-0.3-0.7-0.7-0.7h-2v-1.1
	C147.7,179.6,148.5,178.8,149.5,178.8z"/>
<g id="Canvas" transform="translate(-1640 -2453)">
	<g id="Group_2_">
		<g id="Group_1_">
			<g id="Group">
				<g id="g">
					<g id="path">
						<g id="path9_fill">
							<g transform="translate(1640.54 2474.36)">
								<path id="path0_fill" class="st2" d="M1705.9,2527.1c0,0.9-0.1,1.2-0.2,1.4c-0.2,0.2-0.5,0.3-0.7,0.3l0.1,0.5
									c0.4,0,0.8-0.1,1.1-0.4c0.2-0.2,0.3-0.4,0.4-0.7s0.1-0.5,0.1-0.8v-3.3h-0.7V2527.1L1705.9,2527.1z"/>
							</g>
						</g>
					</g>
					<g id="path_1_">
						<g id="path10_fill">
							<g transform="translate(1645.68 2474.37)">
								<path id="path1_fill" class="st2" d="M1710.9,2526.7c0,0.4,0,0.7,0,1h-0.6l0-0.6c-0.1,0.2-0.3,0.4-0.5,0.5
									c-0.2,0.1-0.5,0.2-0.7,0.2c-0.6,0-1.3-0.3-1.3-1.6v-2.1h0.7v2c0,0.7,0.2,1.2,0.8,1.2c0.1,0,0.2,0,0.4-0.1
									c0.1,0,0.2-0.1,0.3-0.2c0.1-0.1,0.2-0.2,0.2-0.3c0-0.1,0.1-0.2,0.1-0.4v-2.2h0.7L1710.9,2526.7L1710.9,2526.7z"/>
							</g>
						</g>
					</g>
					<g id="path_2_">
						<g id="path11_fill">
							<g transform="translate(1653.39 2474.26)">
								<path id="path2_fill" class="st2" d="M1712.2,2525.3c0-0.5,0-0.8,0-1.2h0.6l0,0.6c0.1-0.2,0.3-0.4,0.6-0.5
									c0.2-0.1,0.5-0.2,0.7-0.2c0.9,0,1.6,0.7,1.6,1.8c0,1.3-0.8,1.9-1.7,1.9c-0.2,0-0.4,0-0.6-0.1s-0.4-0.2-0.5-0.4l0,0v2h-0.7
									V2525.3L1712.2,2525.3z M1712.8,2526.2c0,0.1,0,0.2,0,0.3c0.1,0.2,0.2,0.4,0.4,0.6s0.4,0.2,0.6,0.2c0.7,0,1.1-0.6,1.1-1.4
									c0-0.7-0.4-1.3-1.1-1.3c-0.3,0-0.5,0.1-0.7,0.3s-0.3,0.5-0.3,0.7V2526.2z"/>
							</g>
						</g>
					</g>
					<g id="path_3_">
						<g id="path12_fill">
							<g transform="translate(1660.43 2474.39)">
								<path id="path3_fill" class="st2" d="M1716.8,2524.1l0.8,2.1c0.1,0.2,0.2,0.5,0.2,0.7c0.1-0.2,0.1-0.5,0.2-0.8l0.7-2.1h0.7
									l-1,2.6c-0.5,1.2-0.8,1.9-1.3,2.3c-0.2,0.2-0.5,0.4-0.8,0.4l-0.2-0.6c0.2-0.1,0.4-0.2,0.6-0.3c0.2-0.2,0.4-0.4,0.6-0.7
									c0,0,0-0.1,0.1-0.2c0-0.1,0-0.1,0-0.2l-1.4-3.3L1716.8,2524.1L1716.8,2524.1z"/>
							</g>
						</g>
					</g>
					<g id="path_4_">
						<g id="path13_fill">
							<g transform="translate(1667.55 2472.54)">
								<path id="path4_fill" class="st2" d="M1721.3,2523v1h1v0.5h-1v2c0,0.4,0.1,0.7,0.5,0.7c0.1,0,0.3,0,0.4,0l0,0.5
									c-0.2,0.1-0.4,0.1-0.6,0.1c-0.1,0-0.3,0-0.4-0.1c-0.1,0-0.2-0.1-0.3-0.2c-0.2-0.3-0.3-0.6-0.3-0.9v-2h-0.6v-0.5h0.6v-0.9
									L1721.3,2523z"/>
							</g>
						</g>
					</g>
					<g id="path_5_">
						<g id="path14_fill">
							<g transform="translate(1672.47 2474.29)">
								<path id="path5_fill" class="st2" d="M1723.4,2526c0,0.2,0,0.3,0.1,0.5c0.1,0.2,0.2,0.3,0.3,0.4c0.1,0.1,0.3,0.2,0.4,0.3
									c0.2,0.1,0.3,0.1,0.5,0.1c0.3,0,0.7-0.1,1-0.2l0.1,0.5c-0.4,0.2-0.8,0.2-1.2,0.2c-0.2,0-0.5,0-0.7-0.1s-0.4-0.2-0.6-0.4
									s-0.3-0.4-0.4-0.6s-0.1-0.5-0.1-0.7c0-1.1,0.7-2,1.7-2c1.2,0,1.5,1,1.5,1.7c0,0.1,0,0.2,0,0.3L1723.4,2526L1723.4,2526z
									 M1725.4,2525.5c0-0.1,0-0.3,0-0.4c0-0.1-0.1-0.2-0.2-0.4c-0.1-0.1-0.2-0.2-0.3-0.2c-0.1-0.1-0.3-0.1-0.4-0.1
									c-0.3,0-0.5,0.1-0.7,0.3c-0.2,0.2-0.3,0.5-0.3,0.7H1725.4z"/>
							</g>
						</g>
					</g>
					<g id="path_6_">
						<g id="path15_fill">
							<g transform="translate(1679.98 2474.24)">
								<path id="path6_fill" class="st2" d="M1727,2525.2c0-0.4,0-0.8,0-1.1h0.6v0.7h0c0.1-0.2,0.2-0.4,0.4-0.6
									c0.2-0.1,0.4-0.2,0.6-0.2c0.1,0,0.1,0,0.2,0v0.6c-0.1,0-0.2,0-0.2,0c-0.2,0-0.4,0.1-0.6,0.3c-0.2,0.2-0.3,0.4-0.3,0.6
									c0,0.1,0,0.2,0,0.3v1.9h-0.7L1727,2525.2L1727,2525.2z"/>
							</g>
						</g>
					</g>
				</g>
			</g>
		</g>
	</g>
</g>
<g>
	<path class="st4" d="M187.1,159.2c-0.3,0-0.5-0.2-0.5-0.5c0-0.1,0-0.1,0-0.2l1.3-3c0.1-0.3,0.4-0.4,0.7-0.3
		c0.3,0.1,0.4,0.4,0.3,0.7l-1.3,3C187.5,159.1,187.3,159.2,187.1,159.2z"/>
	<path class="st4" d="M190.2,159.2c-0.3,0-0.5-0.2-0.5-0.5c0-0.1,0.1-0.3,0.2-0.4l1.1-1.1l-1.1-1.1c-0.2-0.2-0.2-0.6,0-0.8
		c0.2-0.2,0.6-0.2,0.8,0l1.5,1.5c0.2,0.2,0.2,0.6,0,0.8c0,0,0,0,0,0l-1.5,1.5C190.5,159.2,190.3,159.2,190.2,159.2z"/>
	<path class="st4" d="M185.2,159.2c-0.1,0-0.3-0.1-0.4-0.2l-1.5-1.5c-0.2-0.2-0.2-0.6,0-0.8l1.5-1.5c0.2-0.2,0.6-0.2,0.8,0
		c0.2,0.2,0.2,0.6,0,0.8c0,0,0,0,0,0l-1.1,1.1l1.1,1.1c0.2,0.2,0.2,0.6,0,0.8C185.5,159.2,185.4,159.2,185.2,159.2z"/>
</g>
<g>
	<path class="st4" d="M187.2,218.3c-0.3,0-0.5-0.2-0.5-0.5c0-0.1,0-0.1,0-0.2l1.3-3c0.1-0.3,0.4-0.4,0.7-0.3s0.4,0.4,0.3,0.7l-1.3,3
		C187.6,218.2,187.4,218.3,187.2,218.3z"/>
	<path class="st4" d="M190.3,218.3c-0.3,0-0.5-0.2-0.5-0.5c0-0.1,0.1-0.3,0.2-0.4l1.1-1.1l-1.1-1.1c-0.2-0.2-0.2-0.6,0-0.8
		c0.2-0.2,0.6-0.2,0.8,0l1.5,1.5c0.2,0.2,0.2,0.6,0,0.8c0,0,0,0,0,0l-1.5,1.5C190.6,218.3,190.4,218.3,190.3,218.3z"/>
	<path class="st4" d="M185.3,218.3c-0.1,0-0.3-0.1-0.4-0.2l-1.5-1.5c-0.2-0.2-0.2-0.6,0-0.8l1.5-1.5c0.2-0.2,0.6-0.2,0.8,0
		c0.2,0.2,0.2,0.6,0,0.8c0,0,0,0,0,0l-1.1,1.1l1.1,1.1c0.2,0.2,0.2,0.6,0,0.8C185.6,218.3,185.4,218.3,185.3,218.3z"/>
</g>
<g>
	<path class="st4" d="M187.1,188.8c-0.3,0-0.5-0.2-0.5-0.5c0-0.1,0-0.1,0-0.2l1.3-3c0.1-0.3,0.4-0.4,0.7-0.3s0.4,0.4,0.3,0.7l-1.3,3
		C187.5,188.6,187.3,188.8,187.1,188.8z"/>
	<path class="st4" d="M190.2,188.8c-0.3,0-0.5-0.2-0.5-0.5c0-0.1,0.1-0.3,0.2-0.4l1.1-1.1l-1.1-1.1c-0.2-0.2-0.2-0.6,0-0.8
		c0.2-0.2,0.6-0.2,0.8,0l1.5,1.5c0.2,0.2,0.2,0.6,0,0.8c0,0,0,0,0,0l-1.5,1.5C190.5,188.7,190.3,188.8,190.2,188.8z"/>
	<path class="st4" d="M185.2,188.8c-0.1,0-0.3-0.1-0.4-0.2l-1.5-1.5c-0.2-0.2-0.2-0.6,0-0.8l1.5-1.5c0.2-0.2,0.6-0.2,0.8,0
		c0.2,0.2,0.2,0.6,0,0.8c0,0,0,0,0,0l-1.1,1.1l1.1,1.1c0.2,0.2,0.2,0.6,0,0.8C185.5,188.7,185.4,188.8,185.2,188.8z"/>
</g>
<g>
	<path class="st4" d="M216.6,174c-0.3,0-0.5-0.2-0.5-0.5c0-0.1,0-0.1,0-0.2l1.3-3c0.1-0.3,0.4-0.4,0.7-0.3s0.4,0.4,0.3,0.7l-1.3,3
		C217,173.9,216.8,174,216.6,174z"/>
	<path class="st4" d="M219.7,174c-0.3,0-0.5-0.2-0.5-0.5c0-0.1,0.1-0.3,0.2-0.4l1.1-1.1l-1.1-1.1c-0.2-0.2-0.2-0.6,0-0.8
		c0.2-0.2,0.6-0.2,0.8,0l1.5,1.5c0.2,0.2,0.2,0.6,0,0.8c0,0,0,0,0,0l-1.5,1.5C220,173.9,219.9,174,219.7,174z"/>
	<path class="st4" d="M214.7,174c-0.1,0-0.3-0.1-0.4-0.2l-1.5-1.5c-0.2-0.2-0.2-0.6,0-0.8l1.5-1.5c0.2-0.2,0.6-0.2,0.8,0
		c0.2,0.2,0.2,0.6,0,0.8c0,0,0,0,0,0L214,172l1.1,1.1c0.2,0.2,0.2,0.6,0,0.8C215,173.9,214.9,174,214.7,174z"/>
</g>
<g>
	<path class="st4" d="M216.6,203.6c-0.3,0-0.5-0.2-0.5-0.5c0-0.1,0-0.1,0-0.2l1.3-3c0.1-0.3,0.4-0.4,0.7-0.3
		c0.3,0.1,0.4,0.4,0.3,0.7l-1.3,3C217,203.4,216.8,203.6,216.6,203.6z"/>
	<path class="st4" d="M219.7,203.5c-0.3,0-0.5-0.2-0.5-0.5c0-0.1,0.1-0.3,0.2-0.4l1.1-1.1l-1.1-1.1c-0.2-0.2-0.2-0.6,0-0.8
		c0.2-0.2,0.6-0.2,0.8,0l1.5,1.5c0.2,0.2,0.2,0.6,0,0.8c0,0,0,0,0,0l-1.5,1.5C220,203.5,219.9,203.5,219.7,203.5z"/>
	<path class="st4" d="M214.7,203.5c-0.1,0-0.3-0.1-0.4-0.2l-1.5-1.5c-0.2-0.2-0.2-0.6,0-0.8l1.5-1.5c0.2-0.2,0.6-0.2,0.8,0
		s0.2,0.6,0,0.8c0,0,0,0,0,0l-1.1,1.1l1.1,1.1c0.2,0.2,0.2,0.6,0,0.8C215,203.5,214.9,203.5,214.7,203.5z"/>
</g>
<g id="g_1_">
	<g id="path_7_">
		<g id="path16_fill">
			<g transform="translate(1673.48 2453.69)">
				<path id="path7_fill" class="st2" d="M87.8,60.3c0,0.4-0.1,0.7-0.2,1c-0.2,0.3-0.5,0.6-0.8,0.7c-0.3,0.2-0.7,0.2-1.1,0.2
					c-0.4-0.1-0.7-0.2-1-0.5c-0.3-0.2-0.5-0.6-0.6-0.9c-0.1-0.4-0.1-0.7,0.1-1.1c0.1-0.3,0.3-0.6,0.6-0.9s0.6-0.3,1-0.4
					c0.2,0,0.5,0,0.7,0.1c0.2,0.1,0.4,0.2,0.6,0.4c0.2,0.2,0.3,0.4,0.4,0.6C87.7,59.8,87.8,60,87.8,60.3L87.8,60.3z"/>
			</g>
		</g>
	</g>
	<g id="path_8_">
		<g id="path17_fill">
			<g transform="translate(1643.21 2484.27)">
				<path id="path8_fill" class="st3" d="M77.1,81.4c-4.9,0-9.1-1.7-11.3-4.3c0.9,2.3,2.4,4.3,4.4,5.7c2,1.4,4.4,2.2,6.9,2.2
					c2.5,0,4.9-0.8,6.9-2.2c2-1.4,3.6-3.4,4.4-5.7C86.2,79.7,82,81.4,77.1,81.4z"/>
			</g>
		</g>
	</g>
	<g id="path_9_">
		<g id="path18_fill">
			<g transform="translate(1643.21 2457.88)">
				<path id="path9_fill_1_" class="st3" d="M77.1,64.7c4.9,0,9.1,1.7,11.3,4.3c-0.9-2.3-2.4-4.3-4.4-5.7c-2-1.4-4.4-2.2-6.9-2.2
					c-2.5,0-4.9,0.8-6.9,2.2c-2,1.4-3.6,3.4-4.4,5.7C68,66.4,72.2,64.7,77.1,64.7z"/>
			</g>
		</g>
	</g>
	<g id="path_10_">
		<g id="path19_fill">
			<g transform="translate(1643.28 2496.09)">
				<path id="path10_fill_1_" class="st2" d="M70.4,86.4c0,0.5-0.1,0.9-0.3,1.3c-0.2,0.4-0.6,0.7-1,0.9s-0.9,0.3-1.3,0.2
					c-0.5-0.1-0.9-0.3-1.2-0.6c-0.3-0.3-0.6-0.7-0.7-1.2c-0.1-0.4-0.1-0.9,0.1-1.3c0.2-0.4,0.4-0.8,0.8-1.1c0.4-0.3,0.8-0.4,1.3-0.4
					c0.3,0,0.6,0,0.9,0.1c0.3,0.1,0.5,0.3,0.8,0.5s0.4,0.4,0.5,0.7C70.3,85.8,70.4,86.1,70.4,86.4L70.4,86.4z"/>
			</g>
		</g>
	</g>
	<g id="path_11_">
		<g id="path20_fill">
			<g transform="translate(1641.87 2458.43)">
				<path id="path11_fill_1_" class="st2" d="M66.3,64.1c-0.3,0-0.5-0.1-0.7-0.2c-0.2-0.1-0.4-0.3-0.5-0.6C65,63,64.9,62.8,65,62.5
					c0-0.3,0.2-0.5,0.3-0.7c0.2-0.2,0.4-0.3,0.7-0.4c0.3-0.1,0.5,0,0.8,0c0.2,0.1,0.5,0.3,0.6,0.5c0.2,0.2,0.2,0.5,0.3,0.7
					c0,0.4-0.1,0.7-0.4,1C67,63.9,66.7,64.1,66.3,64.1z"/>
			</g>
		</g>
	</g>
</g>
<path class="st4" d="M175.3,190.5c-0.7,0-1.3-0.3-1.8-0.7l-5-5c-1-1-0.9-2.6,0.1-3.5c1-0.9,2.5-0.9,3.5,0l3.2,3.2l6.5-6.5
	c1-1,2.6-0.9,3.5,0.1c0.9,1,0.9,2.5,0,3.5l-8.2,8.2C176.6,190.2,176,190.5,175.3,190.5z"/>
</svg>
