<?xml version="1.0" encoding="utf-8"?>
<!-- Generator: Adobe Illustrator 25.2.1, SVG Export Plug-In . SVG Version: 6.00 Build 0)  -->
<svg version="1.1"
	 id="svg2" xmlns:inkscape="http://www.inkscape.org/namespaces/inkscape" xmlns:sodipodi="http://sodipodi.sourceforge.net/DTD/sodipodi-0.dtd" xmlns:svg="http://www.w3.org/2000/svg"
	 xmlns="http://www.w3.org/2000/svg" xmlns:xlink="http://www.w3.org/1999/xlink" x="0px" y="0px" viewBox="0 0 1514.4 381.3"
	 style="enable-background:new 0 0 1514.4 381.3;" xml:space="preserve">
<style type="text/css">
	.st0{fill:#FFFFFF;}
	.st1{fill:#7E6671;}
	.st2{fill:#F2651D;}
	.st3{fill:#EEE7F4;}
	.st4{font-family:'Ibrand-Regular';}
	.st5{font-size:251.2173px;}
	.st6{fill:#474749;}
	.st7{fill:#6F7073;}
	.st8{fill:#9A9A9A;}
	.st9{fill:#595B5D;}
</style>
<sodipodi:namedview  bordercolor="#000000" borderopacity="0.25" id="namedview4" inkscape:deskcolor="#d1d1d1" inkscape:pagecheckerboard="0" inkscape:pageopacity="0.0" inkscape:showpageshadow="2" pagecolor="#ffffff">
	</sodipodi:namedview>
<g id="g8" transform="matrix(1.3333333,0,0,-1.3333333,0,381.33333)" inkscape:groupmode="layer" inkscape:label="ink_ext_XXXXXX">
	<g id="g10" transform="scale(0.1)">
		<path id="path12" class="st0" d="M1421,2860c784.8,0,1421-636.2,1421-1421c0-784.8-636.2-1421-1421-1421C636.2,18,0,654.2,0,1439
			C0,2223.8,636.2,2860,1421,2860"/>
		<path id="path14" class="st1" d="M1522,1364H529v993h993V1364z M1572,1339v1043c0,14-11,25-25,25H504c-14,0-25-11-25-25V1339
			c0-14,11-25,25-25h1043C1561,1314,1572,1325,1572,1339"/>
		<path id="path16" class="st1" d="M2390,1564h-743c-14,0-25-11-25-25s11-25,25-25h718V521h-993v718c0,14-11,25-25,25s-25-11-25-25
			V496c0-14,11-25,25-25h1043c14,0,25,11,25,25v1043C2415,1553,2404,1564,2390,1564"/>
		<path id="path18" class="st1" d="M1244,1864H871c-14,0-25-11-25-25s11-25,25-25h373c14,0,25,11,25,25S1258,1864,1244,1864
			L1244,1864"/>
		<path id="path20" class="st1" d="M871,1667h208c14,0,25,11,25,25s-11,25-25,25H871c-14,0-25-11-25-25S857,1667,871,1667"/>
		<path id="path22" class="st1" d="M1384,1717h-205c-14,0-25-11-25-25s11-25,25-25h205c14,0,25,11,25,25S1398,1717,1384,1717"/>
		<path id="path24" class="st1" d="M871,1520h208c14,0,25,11,25,25s-11,25-25,25H871c-14,0-25-11-25-25S857,1520,871,1520"/>
		<path id="path26" class="st1" d="M1384,1570h-205c-14,0-25-11-25-25s11-25,25-25h205c14,0,25,11,25,25S1398,1570,1384,1570"/>
		<path id="path28" class="st2" d="M771,1814H666c-14,0-25,11-25,25s11,25,25,25h105c14,0,25-11,25-25S785,1814,771,1814"/>
		<path id="path30" class="st2" d="M2184,1820c-10,10-26,10-35,0l-67-67v250c0,14-11,25-25,25h-392c-14,0-25-11-25-25s11-25,25-25
			h367v-225l-67,67c-10,10-26,9-35-1s-9-25,0-35l110-110c10-10,26-10,35,0l110,110C2194,1794,2194,1810,2184,1820"/>
		<path id="path32" class="st2" d="M1198,836l-110,110c-10,10-26,10-35,0c-10-10-10-25,0-35l67-67H895v367c0,14-11,25-25,25
			s-25-11-25-25V819c0-14,11-25,25-25h250l-67-67c-10-10-10-26,0-35c10-10,26-10,35,0l0,0l110,110C1208,811,1208,827,1198,836
			L1198,836"/>
		<path id="path34" class="st1" d="M2008,1122v-119h-58c-6,0-11-5-11-11s5-11,11-11h58V867c0-18,15-33,33-33h58c6,0,11,5,11,11
			s-5,11-11,11h-58c-7,0-12,5-12,12v255c0,7,5,12,12,12h58c6,0,11,5,11,11s-5,11-11,11h-58C2023,1156,2008,1141,2008,1122"/>
		<path id="path36" class="st1" d="M1815,597v201h124V597H1815z M1939,1389v-201h-124v201H1939z M1960,586v223c0,6-5,11-11,11h-145
			c-6,0-11-5-11-11v-98h-48c-7,0-12,5-12,12v260h71c6,0,11,5,11,11c0,6-5,11-11,11h-71v264c0,7,5,12,12,12h48v-103c0-6,5-11,11-11
			h146c6,0,11,5,11,11v223c0,6-5,11-11,11h-145c-6,0-11-5-11-11v-98h-48c-18,0-33-15-33-33v-264h-54c-6,0-11-5-11-11c0-6,5-11,11-11
			h54V724c0-18,15-33,33-33h48V588c0-6,5-11,11-11h145C1956,575,1960,580,1960,586L1960,586"/>
		<path id="path38" class="st2" d="M1815,1093V892h124v201H1815z M1794,881v223c0,6,5,11,11,11h145c6,0,11-5,11-11V881
			c0-6-5-11-11-11h-145C1798,871,1794,875,1794,881"/>
		<path id="path40" class="st2" d="M2110,1241v-201h124v201H2110z M2089,1029v223c0,6,5,11,11,11h145c6,0,11-5,11-11v-223
			c0-6-5-11-11-11h-145C2094,1018,2089,1023,2089,1029"/>
		<path id="path42" class="st2" d="M2110,946V745h124v201H2110z M2089,734v223c0,6,5,11,11,11h145c6,0,11-5,11-11V734
			c0-6-5-11-11-11h-145C2094,723,2089,728,2089,734"/>
		<path id="path44" class="st2" d="M1481,790v75c0,6,5,11,11,11c6,0,11-5,11-11v-64h142v383h-142v-57c0-6-5-11-11-11
			c-6,0-11,5-11,11v67c0,6,5,11,11,11h163c6,0,11-5,11-11V790c0-6-5-11-11-11h-163C1486,780,1481,785,1481,790"/>
		<path id="path46" class="st1" d="M1495,1072h33c10,0,18-8,18-18v-35c0-10-8-18-18-18h-33c-17,0-31-14-31-31v-11h-12
			c-10,0-18,8-18,18v34c0,10,8,18,18,18h45c4,0,7,3,7,7s-3,7-7,7h-20v11C1477,1064,1485,1072,1495,1072z M1570,1030c10,0,18-8,18-18
			v-34c0-10-8-18-18-18h-45c-4,0-7-3-7-7s3-7,7-7h20v-11c0-10-8-18-18-18h-33c-10,0-18,8-18,18v35c0,10,8,18,18,18h33
			c17,0,31,14,31,31v11H1570z M1464,1043h-12c-17,0-31-14-31-31v-34c0-17,14-31,31-31h12v-11c0-17,14-31,31-31h33c17,0,31,14,31,31
			v11h11c17,0,31,14,31,31v34c0,17-14,31-31,31h-11v11c0,17-14,31-31,31h-33c-17,0-31-14-31-31V1043"/>
		<path id="path48" class="st3" d="M1871,1268c-3,0-5,2-5,5c0,1,0,1,0,2l13,30c1,3,4,4,7,3s4-4,3-7l-13-30
			C1875,1269,1873,1268,1871,1268"/>
		<path id="path50" class="st3" d="M1902,1268c-3,0-5,2-5,5c0,1,1,3,2,4l11,11l-11,11c-2,2-2,6,0,8s6,2,8,0l15-15c2-2,2-6,0-8l0,0
			l-15-15C1905,1268,1903,1268,1902,1268"/>
		<path id="path52" class="st3" d="M1852,1268c-1,0-3,1-4,2l-15,15c-2,2-2,6,0,8l15,15c2,2,6,2,8,0s2-6,0-8l0,0l-11-11l11-11
			c2-2,2-6,0-8C1855,1268,1854,1268,1852,1268"/>
		<path id="path54" class="st3" d="M1872,677c-3,0-5,2-5,5c0,1,0,1,0,2l13,30c1,3,4,4,7,3s4-4,3-7l-13-30
			C1876,678,1874,677,1872,677"/>
		<path id="path56" class="st3" d="M1903,677c-3,0-5,2-5,5c0,1,1,3,2,4l11,11l-11,11c-2,2-2,6,0,8s6,2,8,0l15-15c2-2,2-6,0-8l0,0
			l-15-15C1906,677,1904,677,1903,677"/>
		<path id="path58" class="st3" d="M1853,677c-1,0-3,1-4,2l-15,15c-2,2-2,6,0,8l15,15c2,2,6,2,8,0s2-6,0-8l0,0l-11-11l11-11
			c2-2,2-6,0-8C1856,677,1854,677,1853,677"/>
		<path id="path60" class="st3" d="M1871,972c-3,0-5,2-5,5c0,1,0,1,0,2l13,30c1,3,4,4,7,3s4-4,3-7l-13-30
			C1875,974,1873,972,1871,972"/>
		<path id="path62" class="st3" d="M1902,972c-3,0-5,2-5,5c0,1,1,3,2,4l11,11l-11,11c-2,2-2,6,0,8s6,2,8,0l15-15c2-2,2-6,0-8l0,0
			l-15-15C1905,973,1903,972,1902,972"/>
		<path id="path64" class="st3" d="M1852,972c-1,0-3,1-4,2l-15,15c-2,2-2,6,0,8l15,15c2,2,6,2,8,0s2-6,0-8l0,0l-11-11l11-11
			c2-2,2-6,0-8C1855,973,1854,972,1852,972"/>
		<path id="path66" class="st3" d="M2166,1120c-3,0-5,2-5,5c0,1,0,1,0,2l13,30c1,3,4,4,7,3s4-4,3-7l-13-30
			C2170,1121,2168,1120,2166,1120"/>
		<path id="path68" class="st3" d="M2197,1120c-3,0-5,2-5,5c0,1,1,3,2,4l11,11l-11,11c-2,2-2,6,0,8s6,2,8,0l15-15c2-2,2-6,0-8l0,0
			l-15-15C2200,1121,2199,1120,2197,1120"/>
		<path id="path70" class="st3" d="M2147,1120c-1,0-3,1-4,2l-15,15c-2,2-2,6,0,8l15,15c2,2,6,2,8,0s2-6,0-8l0,0l-11-12l11-11
			c2-2,2-6,0-8C2150,1121,2149,1120,2147,1120"/>
		<path id="path72" class="st3" d="M2166,824c-3,0-5,2-5,5c0,1,0,1,0,2l13,30c1,3,4,4,7,3s4-4,3-7l-13-30
			C2170,826,2168,824,2166,824"/>
		<path id="path74" class="st3" d="M2197,825c-3,0-5,2-5,5c0,1,1,3,2,4l11,11l-11,11c-2,2-2,6,0,8s6,2,8,0l15-15c2-2,2-6,0-8l0,0
			l-15-15C2200,825,2199,825,2197,825"/>
		<path id="path76" class="st3" d="M2147,825c-1,0-3,1-4,2l-15,15c-2,2-2,6,0,8l15,15c2,2,6,2,8,0s2-6,0-8l0,0l-11-11l11-11
			c2-2,2-6,0-8C2150,825,2149,825,2147,825"/>
		<g id="g78" transform="scale(10)">
			<text transform="matrix(0.75 0 0 -0.75 306.0876 47.0998)" class="st2 st4 st5">n</text>
			<text transform="matrix(0.75 0 0 -0.75 401.234 47.0998)" class="st2 st4 st5">b</text>
		</g>
		<g id="g84" transform="scale(10)">
			<text transform="matrix(0.75 0 0 -0.75 510.0876 47.0998)" class="st1 st4 st5">r</text>
			<text transform="matrix(0.75 0 0 -0.75 560.7701 47.0998)" class="st1 st4 st5">e</text>
			<text transform="matrix(0.75 0 0 -0.75 664.2087 47.0998)" class="st1 st4 st5">f</text>
			<text transform="matrix(0.75 0 0 -0.75 716.5871 47.0998)" class="st1 st4 st5">a</text>
			<text transform="matrix(0.75 0 0 -0.75 822.4748 47.0998)" class="st1 st4 st5">c</text>
			<text transform="matrix(0.75 0 0 -0.75 923.6531 47.0998)" class="st1 st4 st5">t</text>
			<text transform="matrix(0.75 0 0 -0.75 976.9719 47.0998)" class="st1 st4 st5">o</text>
			<text transform="matrix(0.75 0 0 -0.75 1080.4104 47.0998)" class="st1 st4 st5">r</text>
		</g>
		<path id="path90" class="st6" d="M881.7,2126.6c0-9-0.7-12-2.6-14.2c-2.1-1.9-4.8-2.9-7.5-2.9l0.7-5.2c4.3-0.1,8.5,1.5,11.8,4.3
			c1.8,2.1,3.1,4.6,3.8,7.3c0.8,2.7,1,5.5,0.7,8.2v34.2h-6.9v-31.6V2126.6"/>
		<path id="path92" class="st6" d="M933.3,2130.7c0-3.9,0-7.3,0.3-10.3h-6.2l-0.4,6.1c-1.3-2.2-3.1-4-5.3-5.2s-4.7-1.9-7.2-1.8
			c-6,0-13.1,3.3-13.1,16.5v22.1h6.9v-20.7c0-7.2,2.2-12,8.5-12c1.3,0,2.6,0.2,3.8,0.7c1.2,0.5,2.3,1.2,3.2,2.1
			c0.9,0.9,1.6,2,2.1,3.2c0.5,1.2,0.7,2.5,0.7,3.8v23.1h6.9v-27.4L933.3,2130.7"/>
		<path id="path94" class="st6" d="M953.3,2135.7c0-0.9,0.1-1.9,0.3-2.8c0.6-2.3,1.9-4.3,3.8-5.8c1.9-1.4,4.2-2.2,6.5-2.2
			c7.3,0,11.6,5.9,11.6,14.6c0,7.6-4,14-11.3,14c-2.9-0.2-5.6-1.5-7.6-3.6c-2-2.1-3.2-4.8-3.3-7.7L953.3,2135.7z M946.5,2145.8
			c0,4.8,0,8.7-0.3,12.3h6.2l0.3-6.5c1.4,2.3,3.4,4.2,5.8,5.5s5.1,1.9,7.8,1.8c9.2,0,16.1-7.7,16.1-19.2c0-13.5-8.3-20.2-17.3-20.2
			c-2.3-0.1-4.6,0.4-6.6,1.4s-3.8,2.6-5.1,4.5l0,0v-20.7h-6.8v40.8L946.5,2145.8"/>
		<path id="path96" class="st6" d="M994.7,2158.1l8.3-22.3c0.9-2.5,1.8-5.5,2.4-7.7c0.7,2.3,1.5,5.2,2.4,7.9l7.5,22.1h7.3
			l-10.3-26.9c-5.2-12.9-8.3-19.6-13.1-23.6c-2.4-2.2-5.3-3.7-8.5-4.4l-1.7,5.8c2.2,0.7,4.3,1.9,6,3.4c2.5,2.1,4.5,4.7,5.8,7.7
			c0.3,0.5,0.5,1.1,0.6,1.6c-0.1,0.6-0.2,1.2-0.5,1.8l-14.1,34.8h7.5L994.7,2158.1"/>
		<path id="path98" class="st6" d="M1041.1,2168.9v-10.9h9.9v-5.2h-9.9v-20.4c0-4.6,1.3-7.3,5.2-7.3c1.3,0,2.7,0.1,4,0.5l0.3-5.2
			c-2-0.7-4.1-1-6.2-0.9c-1.4-0.1-2.8,0.1-4.1,0.6c-1.3,0.5-2.5,1.3-3.4,2.3c-2.1,2.8-3.1,6.3-2.7,9.8v20.7h-5.9v5.2h6v9.2
			L1041.1,2168.9"/>
		<path id="path100" class="st6" d="M1084,2143.2c0.2,1.4,0.1,2.8-0.3,4.1c-0.4,1.3-1.1,2.6-2,3.6c-0.9,1.1-2,1.9-3.3,2.5
			s-2.6,0.9-4,0.9c-2.8-0.2-5.5-1.5-7.5-3.5s-3.1-4.8-3.1-7.6L1084,2143.2z M1063.8,2138c-0.2-1.8,0.1-3.5,0.7-5.2s1.6-3.1,2.8-4.4
			c1.2-1.2,2.7-2.2,4.4-2.8c1.6-0.6,3.4-0.9,5.2-0.7c3.5-0.1,7.1,0.6,10.3,2l1.2-5.2c-4-1.7-8.3-2.4-12.7-2.3
			c-2.5-0.2-5.1,0.2-7.4,1.1c-2.4,0.9-4.5,2.3-6.3,4.1c-1.8,1.8-3.1,4-4,6.4c-0.9,2.4-1.2,4.9-1,7.4c0,11.4,6.8,20.4,17.8,20.4
			c12.4,0,15.5-10.9,15.5-17.8c0.1-1.1,0.1-2.1,0-3.2h-26.7L1063.8,2138"/>
		<path id="path102" class="st6" d="M1100.8,2146.3c0,4.4,0,8.3-0.3,11.8h6.2v-7.4h0.3c0.7,2.3,2,4.3,3.8,5.8
			c1.8,1.5,4.1,2.4,6.5,2.5c0.7,0.1,1.3,0.1,2,0v-6.5c-0.8,0.1-1.6,0.1-2.4,0c-2.3-0.1-4.6-1-6.3-2.6c-1.7-1.6-2.8-3.8-3-6.1
			c-0.2-1.1-0.3-2.1-0.3-3.2v-20.1h-6.8v25.8L1100.8,2146.3"/>
		<path id="path104" class="st7" d="M1097.8,2261.9c0.2-3.5-0.6-6.9-2.4-9.9c-1.8-3-4.4-5.4-7.5-6.9c-3.1-1.5-6.7-2.1-10.1-1.6
			c-3.4,0.5-6.7,2-9.2,4.3c-2.6,2.3-4.4,5.4-5.3,8.8c-0.8,3.4-0.7,6.9,0.5,10.2c1.2,3.3,3.3,6.1,6.1,8.2c2.8,2.1,6.2,3.2,9.6,3.4
			c2.3,0.1,4.6-0.2,6.7-1c2.2-0.8,4.1-1.9,5.8-3.5c1.7-1.5,3.1-3.4,4-5.4C1097.1,2266.4,1097.7,2264.2,1097.8,2261.9L1097.8,2261.9"
			/>
		<path id="path106" class="st2" d="M995.6,2059.5c-46.5,0-87.4,16.7-108.5,41.4c8.2-22.2,23-41.3,42.4-54.8
			c19.4-13.5,42.5-20.8,66.1-20.8c23.6,0,46.7,7.2,66.1,20.8c19.4,13.5,34.2,32.6,42.4,54.8C1083,2076.2,1042.3,2059.5,995.6,2059.5
			"/>
		<path id="path108" class="st2" d="M995.6,2219.8c46.5,0,87.4-16.7,108.5-41.4c-8.2,22.2-23,41.3-42.4,54.8
			c-19.4,13.5-42.5,20.8-66.1,20.8c-23.6,0-46.7-7.2-66.1-20.8c-19.4-13.5-34.2-32.6-42.4-54.8
			C908.2,2203.2,948.9,2219.8,995.6,2219.8"/>
		<path id="path110" class="st8" d="M931.6,2011.5c0.3-4.4-0.8-8.7-3-12.5c-2.2-3.8-5.5-6.8-9.4-8.7c-3.9-1.9-8.4-2.6-12.7-2
			c-4.3,0.6-8.4,2.5-11.6,5.4c-3.3,2.9-5.6,6.8-6.6,11c-1.1,4.2-0.9,8.7,0.6,12.8c1.5,4.1,4.1,7.7,7.7,10.3
			c3.5,2.6,7.7,4.1,12.1,4.3c2.9,0.2,5.7-0.3,8.4-1.2c2.7-1,5.2-2.4,7.3-4.3c2.1-1.9,3.9-4.2,5.1-6.8
			C930.7,2017.2,931.4,2014.4,931.6,2011.5L931.6,2011.5"/>
		<path id="path112" class="st9" d="M892.4,2225.4c-2.5-0.1-5,0.6-7.1,1.9c-2.1,1.3-3.8,3.3-4.8,5.6c-1,2.3-1.4,4.8-1,7.3
			c0.4,2.5,1.5,4.8,3.2,6.6c1.7,1.8,3.9,3.1,6.4,3.7c2.4,0.6,5,0.4,7.3-0.5c2.3-0.9,4.4-2.4,5.9-4.4c1.5-2,2.3-4.4,2.4-7
			c0.1-3.4-1.1-6.7-3.5-9.1C898.9,2227,895.7,2225.6,892.4,2225.4"/>
	</g>
</g>
</svg>
