<?xml version="1.0" encoding="utf-8"?>
<!-- Generator: Adobe Illustrator 25.2.1, SVG Export Plug-In . SVG Version: 6.00 Build 0)  -->
<svg version="1.1" id="Layer_1" xmlns="http://www.w3.org/2000/svg" xmlns:xlink="http://www.w3.org/1999/xlink" x="0px" y="0px"
	 viewBox="0 0 1136.1 286" style="enable-background:new 0 0 1136.1 286;" xml:space="preserve">
<style type="text/css">
	.st0{fill:#FFFFFF;}
	.st1{fill:#846F75;}
	.st2{fill:#F37726;}
	.st3{fill:#EBE7F2;}
	.st4{enable-background:new    ;}
	.st5{fill:#4E4E4E;}
	.st6{fill:#767677;}
	.st7{fill:#9E9E9E;}
	.st8{fill:#616262;}
</style>
<g>
	<circle class="st0" cx="142.1" cy="142.1" r="142.1"/>
</g>
<g>
	<path class="st1" d="M157.2,152.1V47.8c0-1.4-1.1-2.5-2.5-2.5H50.4c-1.4,0-2.5,1.1-2.5,2.5v104.3c0,1.4,1.1,2.5,2.5,2.5h104.3
		C156.1,154.6,157.2,153.5,157.2,152.1z M152.2,149.6H52.9V50.3h99.3L152.2,149.6L152.2,149.6z"/>
</g>
<g>
	<path class="st1" d="M239,129.6h-74.3c-1.4,0-2.5,1.1-2.5,2.5s1.1,2.5,2.5,2.5h71.8v99.3h-99.3v-71.8c0-1.4-1.1-2.5-2.5-2.5
		s-2.5,1.1-2.5,2.5v74.3c0,1.4,1.1,2.5,2.5,2.5H239c1.4,0,2.5-1.1,2.5-2.5V132.1C241.5,130.7,240.4,129.6,239,129.6z"/>
</g>
<g>
	<path class="st1" d="M124.4,99.6H87.1c-1.4,0-2.5,1.1-2.5,2.5s1.1,2.5,2.5,2.5h37.3c1.4,0,2.5-1.1,2.5-2.5S125.8,99.6,124.4,99.6
		L124.4,99.6z"/>
</g>
<g>
	<path class="st1" d="M87.1,119.3h20.8c1.4,0,2.5-1.1,2.5-2.5s-1.1-2.5-2.5-2.5H87.1c-1.4,0-2.5,1.1-2.5,2.5S85.7,119.3,87.1,119.3z
		"/>
</g>
<g>
	<path class="st1" d="M138.4,114.3h-20.5c-1.4,0-2.5,1.1-2.5,2.5s1.1,2.5,2.5,2.5h20.5c1.4,0,2.5-1.1,2.5-2.5
		S139.8,114.3,138.4,114.3z"/>
</g>
<g>
	<path class="st1" d="M87.1,134h20.8c1.4,0,2.5-1.1,2.5-2.5s-1.1-2.5-2.5-2.5H87.1c-1.4,0-2.5,1.1-2.5,2.5S85.7,134,87.1,134z"/>
</g>
<g>
	<path class="st1" d="M138.4,129h-20.5c-1.4,0-2.5,1.1-2.5,2.5s1.1,2.5,2.5,2.5h20.5c1.4,0,2.5-1.1,2.5-2.5S139.8,129,138.4,129z"/>
</g>
<g>
	<path class="st2" d="M77.1,104.6H66.6c-1.4,0-2.5-1.1-2.5-2.5s1.1-2.5,2.5-2.5h10.5c1.4,0,2.5,1.1,2.5,2.5S78.5,104.6,77.1,104.6z"
		/>
</g>
<g>
	<path class="st2" d="M218.4,104c-1-1-2.6-1-3.5,0l-6.7,6.7v-25c0-1.4-1.1-2.5-2.5-2.5h-39.2c-1.4,0-2.5,1.1-2.5,2.5
		s1.1,2.5,2.5,2.5h36.7v22.5l-6.7-6.7c-1-1-2.6-0.9-3.5,0.1s-0.9,2.5,0,3.5l11,11c1,1,2.6,1,3.5,0l11-11
		C219.4,106.6,219.4,105,218.4,104z"/>
</g>
<g>
	<path class="st2" d="M119.8,202.4l-11-11c-1-1-2.6-1-3.5,0c-1,1-1,2.5,0,3.5l6.7,6.7H89.5v-36.7c0-1.4-1.1-2.5-2.5-2.5
		s-2.5,1.1-2.5,2.5v39.2c0,1.4,1.1,2.5,2.5,2.5h25l-6.7,6.7c-1,1-1,2.6,0,3.5c1,1,2.6,1,3.5,0l0,0l11-11
		C120.8,204.9,120.8,203.3,119.8,202.4L119.8,202.4z"/>
</g>
<g>
	<path class="st1" d="M200.8,173.8v11.9H195c-0.6,0-1.1,0.5-1.1,1.1s0.5,1.1,1.1,1.1h5.8v11.4c0,1.8,1.5,3.3,3.3,3.3h5.8
		c0.6,0,1.1-0.5,1.1-1.1s-0.5-1.1-1.1-1.1h-5.8c-0.7,0-1.2-0.5-1.2-1.2v-25.5c0-0.7,0.5-1.2,1.2-1.2h5.8c0.6,0,1.1-0.5,1.1-1.1
		s-0.5-1.1-1.1-1.1h-5.8C202.3,170.4,200.8,171.9,200.8,173.8z"/>
</g>
<g>
	<path class="st1" d="M196,227.4v-22.3c0-0.6-0.5-1.1-1.1-1.1h-14.5c-0.6,0-1.1,0.5-1.1,1.1v9.8h-4.8c-0.7,0-1.2-0.5-1.2-1.2v-26
		h7.1c0.6,0,1.1-0.5,1.1-1.1s-0.5-1.1-1.1-1.1h-7.1v-26.4c0-0.7,0.5-1.2,1.2-1.2h4.8v10.3c0,0.6,0.5,1.1,1.1,1.1H195
		c0.6,0,1.1-0.5,1.1-1.1v-22.3c0-0.6-0.5-1.1-1.1-1.1h-14.5c-0.6,0-1.1,0.5-1.1,1.1v9.8h-4.8c-1.8,0-3.3,1.5-3.3,3.3v26.4h-5.4
		c-0.6,0-1.1,0.5-1.1,1.1s0.5,1.1,1.1,1.1h5.4v26c0,1.8,1.5,3.3,3.3,3.3h4.8v10.3c0,0.6,0.5,1.1,1.1,1.1H195
		C195.6,228.5,196,228,196,227.4L196,227.4z M193.9,147.1v20.1h-12.4v-20.1H193.9z M181.5,226.3v-20.1h12.4v20.1H181.5z"/>
</g>
<g>
	<path class="st2" d="M179.4,197.9v-22.3c0-0.6,0.5-1.1,1.1-1.1H195c0.6,0,1.1,0.5,1.1,1.1v22.3c0,0.6-0.5,1.1-1.1,1.1h-14.5
		C179.8,198.9,179.4,198.5,179.4,197.9z M181.5,176.7v20.1h12.4v-20.1H181.5z"/>
</g>
<g>
	<path class="st2" d="M208.9,183.1v-22.3c0-0.6,0.5-1.1,1.1-1.1h14.5c0.6,0,1.1,0.5,1.1,1.1v22.3c0,0.6-0.5,1.1-1.1,1.1H210
		C209.4,184.2,208.9,183.7,208.9,183.1z M211,161.9V182h12.4v-20.1H211z"/>
</g>
<g>
	<path class="st2" d="M208.9,212.6v-22.3c0-0.6,0.5-1.1,1.1-1.1h14.5c0.6,0,1.1,0.5,1.1,1.1v22.3c0,0.6-0.5,1.1-1.1,1.1H210
		C209.4,213.7,208.9,213.2,208.9,212.6z M211,191.4v20.1h12.4v-20.1H211z"/>
</g>
<g>
	<path class="st2" d="M148.1,207v-7.5c0-0.6,0.5-1.1,1.1-1.1s1.1,0.5,1.1,1.1v6.4h14.2v-38.3h-14.2v5.7c0,0.6-0.5,1.1-1.1,1.1
		s-1.1-0.5-1.1-1.1v-6.7c0-0.6,0.5-1.1,1.1-1.1h16.3c0.6,0,1.1,0.5,1.1,1.1V207c0,0.6-0.5,1.1-1.1,1.1h-16.3
		C148.6,208,148.1,207.5,148.1,207z"/>
</g>
<g>
	<path class="st1" d="M146.4,181.7h-1.2c-1.7,0-3.1,1.4-3.1,3.1v3.4c0,1.7,1.4,3.1,3.1,3.1h1.2v1.1c0,1.7,1.4,3.1,3.1,3.1h3.3
		c1.7,0,3.1-1.4,3.1-3.1v-1.1h1.1c1.7,0,3.1-1.4,3.1-3.1v-3.4c0-1.7-1.4-3.1-3.1-3.1h-1.1v-1.1c0-1.7-1.4-3.1-3.1-3.1h-3.3
		c-1.7,0-3.1,1.4-3.1,3.1V181.7z M157,183c1,0,1.8,0.8,1.8,1.8v3.4c0,1-0.8,1.8-1.8,1.8h-4.5c-0.4,0-0.7,0.3-0.7,0.7
		s0.3,0.7,0.7,0.7h2v1.1c0,1-0.8,1.8-1.8,1.8h-3.3c-1,0-1.8-0.8-1.8-1.8V189c0-1,0.8-1.8,1.8-1.8h3.3c1.7,0,3.1-1.4,3.1-3.1V183H157
		z M149.5,178.8h3.3c1,0,1.8,0.8,1.8,1.8v3.5c0,1-0.8,1.8-1.8,1.8h-3.3c-1.7,0-3.1,1.4-3.1,3.1v1.1h-1.2c-1,0-1.8-0.8-1.8-1.8v-3.4
		c0-1,0.8-1.8,1.8-1.8h4.5c0.4,0,0.7-0.3,0.7-0.7s-0.3-0.7-0.7-0.7h-2v-1.1C147.7,179.6,148.5,178.8,149.5,178.8z"/>
</g>
<g>
	<g>
		<path class="st3" d="M187.1,159.2c-0.3,0-0.5-0.2-0.5-0.5c0-0.1,0-0.1,0-0.2l1.3-3c0.1-0.3,0.4-0.4,0.7-0.3
			c0.3,0.1,0.4,0.4,0.3,0.7l-1.3,3C187.5,159.1,187.3,159.2,187.1,159.2z"/>
	</g>
	<g>
		<path class="st3" d="M190.2,159.2c-0.3,0-0.5-0.2-0.5-0.5c0-0.1,0.1-0.3,0.2-0.4l1.1-1.1l-1.1-1.1c-0.2-0.2-0.2-0.6,0-0.8
			s0.6-0.2,0.8,0l1.5,1.5c0.2,0.2,0.2,0.6,0,0.8l0,0l-1.5,1.5C190.5,159.2,190.3,159.2,190.2,159.2z"/>
	</g>
	<g>
		<path class="st3" d="M185.2,159.2c-0.1,0-0.3-0.1-0.4-0.2l-1.5-1.5c-0.2-0.2-0.2-0.6,0-0.8l1.5-1.5c0.2-0.2,0.6-0.2,0.8,0
			s0.2,0.6,0,0.8l0,0l-1.1,1.1l1.1,1.1c0.2,0.2,0.2,0.6,0,0.8C185.5,159.2,185.4,159.2,185.2,159.2z"/>
	</g>
</g>
<g>
	<g>
		<path class="st3" d="M187.2,218.3c-0.3,0-0.5-0.2-0.5-0.5c0-0.1,0-0.1,0-0.2l1.3-3c0.1-0.3,0.4-0.4,0.7-0.3s0.4,0.4,0.3,0.7
			l-1.3,3C187.6,218.2,187.4,218.3,187.2,218.3z"/>
	</g>
	<g>
		<path class="st3" d="M190.3,218.3c-0.3,0-0.5-0.2-0.5-0.5c0-0.1,0.1-0.3,0.2-0.4l1.1-1.1l-1.1-1.1c-0.2-0.2-0.2-0.6,0-0.8
			s0.6-0.2,0.8,0l1.5,1.5c0.2,0.2,0.2,0.6,0,0.8l0,0l-1.5,1.5C190.6,218.3,190.4,218.3,190.3,218.3z"/>
	</g>
	<g>
		<path class="st3" d="M185.3,218.3c-0.1,0-0.3-0.1-0.4-0.2l-1.5-1.5c-0.2-0.2-0.2-0.6,0-0.8l1.5-1.5c0.2-0.2,0.6-0.2,0.8,0
			s0.2,0.6,0,0.8l0,0l-1.1,1.1l1.1,1.1c0.2,0.2,0.2,0.6,0,0.8C185.6,218.3,185.4,218.3,185.3,218.3z"/>
	</g>
</g>
<g>
	<g>
		<path class="st3" d="M187.1,188.8c-0.3,0-0.5-0.2-0.5-0.5c0-0.1,0-0.1,0-0.2l1.3-3c0.1-0.3,0.4-0.4,0.7-0.3s0.4,0.4,0.3,0.7
			l-1.3,3C187.5,188.6,187.3,188.8,187.1,188.8z"/>
	</g>
	<g>
		<path class="st3" d="M190.2,188.8c-0.3,0-0.5-0.2-0.5-0.5c0-0.1,0.1-0.3,0.2-0.4l1.1-1.1l-1.1-1.1c-0.2-0.2-0.2-0.6,0-0.8
			s0.6-0.2,0.8,0l1.5,1.5c0.2,0.2,0.2,0.6,0,0.8l0,0l-1.5,1.5C190.5,188.7,190.3,188.8,190.2,188.8z"/>
	</g>
	<g>
		<path class="st3" d="M185.2,188.8c-0.1,0-0.3-0.1-0.4-0.2l-1.5-1.5c-0.2-0.2-0.2-0.6,0-0.8l1.5-1.5c0.2-0.2,0.6-0.2,0.8,0
			s0.2,0.6,0,0.8l0,0l-1.1,1.1l1.1,1.1c0.2,0.2,0.2,0.6,0,0.8C185.5,188.7,185.4,188.8,185.2,188.8z"/>
	</g>
</g>
<g>
	<g>
		<path class="st3" d="M216.6,174c-0.3,0-0.5-0.2-0.5-0.5c0-0.1,0-0.1,0-0.2l1.3-3c0.1-0.3,0.4-0.4,0.7-0.3s0.4,0.4,0.3,0.7l-1.3,3
			C217,173.9,216.8,174,216.6,174z"/>
	</g>
	<g>
		<path class="st3" d="M219.7,174c-0.3,0-0.5-0.2-0.5-0.5c0-0.1,0.1-0.3,0.2-0.4l1.1-1.1l-1.1-1.1c-0.2-0.2-0.2-0.6,0-0.8
			s0.6-0.2,0.8,0l1.5,1.5c0.2,0.2,0.2,0.6,0,0.8l0,0l-1.5,1.5C220,173.9,219.9,174,219.7,174z"/>
	</g>
	<g>
		<path class="st3" d="M214.7,174c-0.1,0-0.3-0.1-0.4-0.2l-1.5-1.5c-0.2-0.2-0.2-0.6,0-0.8l1.5-1.5c0.2-0.2,0.6-0.2,0.8,0
			s0.2,0.6,0,0.8l0,0L214,172l1.1,1.1c0.2,0.2,0.2,0.6,0,0.8C215,173.9,214.9,174,214.7,174z"/>
	</g>
</g>
<g>
	<g>
		<path class="st3" d="M216.6,203.6c-0.3,0-0.5-0.2-0.5-0.5c0-0.1,0-0.1,0-0.2l1.3-3c0.1-0.3,0.4-0.4,0.7-0.3
			c0.3,0.1,0.4,0.4,0.3,0.7l-1.3,3C217,203.4,216.8,203.6,216.6,203.6z"/>
	</g>
	<g>
		<path class="st3" d="M219.7,203.5c-0.3,0-0.5-0.2-0.5-0.5c0-0.1,0.1-0.3,0.2-0.4l1.1-1.1l-1.1-1.1c-0.2-0.2-0.2-0.6,0-0.8
			s0.6-0.2,0.8,0l1.5,1.5c0.2,0.2,0.2,0.6,0,0.8l0,0l-1.5,1.5C220,203.5,219.9,203.5,219.7,203.5z"/>
	</g>
	<g>
		<path class="st3" d="M214.7,203.5c-0.1,0-0.3-0.1-0.4-0.2l-1.5-1.5c-0.2-0.2-0.2-0.6,0-0.8l1.5-1.5c0.2-0.2,0.6-0.2,0.8,0
			s0.2,0.6,0,0.8l0,0l-1.1,1.1l1.1,1.1c0.2,0.2,0.2,0.6,0,0.8C215,203.5,214.9,203.5,214.7,203.5z"/>
	</g>
</g>
<g class="st4">
	<path class="st2" d="M355.1,143c7.8,0,14.4,1.3,19.9,3.9c5.5,2.6,10,5.8,13.5,9.8c3.5,4,6.1,8.3,7.6,12.9c1.6,4.6,2.4,9,2.4,13.2
		v56.1h-22.6v-55.6c0-3.4-0.6-6.3-1.7-8.7c-1.1-2.4-2.6-4.4-4.5-6c-1.9-1.6-4.1-2.8-6.6-3.6c-2.5-0.8-5.2-1.1-7.9-1.1
		c-2.8,0-5.4,0.4-7.9,1.1c-2.5,0.8-4.7,1.9-6.6,3.6c-1.9,1.6-3.4,3.6-4.5,6c-1.1,2.4-1.7,5.3-1.7,8.7v55.6h-22.6v-56.1
		c0-4.1,0.8-8.5,2.4-13.2c1.6-4.6,4.1-9,7.6-12.9c3.5-4,8-7.2,13.5-9.8C340.7,144.3,347.3,143,355.1,143z"/>
	<path class="st2" d="M429.5,107v46.9c2.3-2.9,5.8-5.4,10.5-7.5c4.8-2.1,10.6-3.2,17.3-3.2c6.8,0,13.1,1.2,18.8,3.5
		c5.8,2.3,10.7,5.6,14.9,9.9c4.1,4.3,7.4,9.4,9.7,15.5c2.3,6,3.5,12.7,3.5,20c0,7.3-1.2,13.9-3.5,19.8c-2.3,5.9-5.6,11-9.9,15.3
		c-4.3,4.3-9.3,7.6-15.2,9.9c-5.8,2.3-12.3,3.5-19.5,3.5c-6.9,0-13.4-1.1-19.4-3.3c-6-2.2-11.2-5.4-15.6-9.5
		c-4.4-4.1-7.9-9.2-10.5-15.3c-2.6-6-3.9-12.8-3.9-20.3v-85H429.5z M474.6,171.3c-4.7-4.9-11-7.3-18.9-7.3c-7.9,0-14.3,2.4-19,7.3
		c-4.8,4.9-7.2,11.7-7.2,20.5c0,8.8,2.4,15.6,7.2,20.5c4.8,4.9,11.1,7.3,19,7.3c7.9,0,14.2-2.5,18.9-7.3c4.7-4.9,7.1-11.7,7.1-20.5
		C481.7,183,479.3,176.2,474.6,171.3z"/>
</g>
<g class="st4">
	<path class="st1" d="M515.7,186.1c0-14.3,4.2-25.1,12.6-32.3c8.4-7.2,19.8-10.8,34.1-10.8v20.7c-7.5,0-13.4,1.9-17.7,5.6
		c-4.3,3.7-6.4,9.3-6.4,16.9v52.8h-22.6V186.1z"/>
	<path class="st1" d="M612.4,219.9c9.5,0,16.6-3.4,21.3-10.2h24.7c-3.1,9.5-8.7,17.1-16.7,22.6c-8,5.5-17.7,8.3-29.1,8.3
		c-7.3,0-13.9-1.2-20-3.5c-6-2.3-11.2-5.6-15.4-9.9c-4.3-4.3-7.6-9.4-9.9-15.5c-2.3-6-3.5-12.7-3.5-20c0-7.3,1.2-13.9,3.5-19.9
		c2.3-6,5.6-11.1,9.9-15.3c4.3-4.2,9.4-7.5,15.4-9.8c6-2.3,12.7-3.5,20-3.5c7.3,0,13.9,1.2,19.9,3.5c6,2.3,11.1,5.6,15.4,9.8
		c4.3,4.2,7.6,9.3,9.9,15.3c2.3,6,3.5,12.6,3.5,19.9c0,1.4,0,2.7-0.1,3.9c-0.1,1.2-0.2,2.4-0.3,3.7h-73.7c1.3,6.5,4.1,11.6,8.5,15.2
		C600,218.1,605.6,219.9,612.4,219.9z M636.1,178.6c-2-4.6-5.1-8.2-9.1-10.7c-4.1-2.5-8.9-3.8-14.6-3.8c-5.7,0-10.5,1.3-14.5,3.8
		c-4,2.5-7,6.1-9,10.7H636.1z"/>
	<path class="st1" d="M664.4,165.4v-20.7h53.5v20.7H664.4z M721.1,126.4c-8.9,0-15.3,1.9-19,5.6c-3.8,3.7-5.7,9.9-5.7,18.6v88.4
		h-22.6v-88.6c0-14.7,4-25.8,12-33.3c8-7.5,19.8-11.3,35.3-11.3V126.4z"/>
	<path class="st1" d="M768,143.4c7.3,0,13.9,1.2,20,3.5c6,2.3,11.2,5.6,15.4,9.9c4.3,4.3,7.6,9.4,9.9,15.5c2.3,6,3.5,12.7,3.5,20
		v46.7h-22.6v-9c-2.3,2.9-5.7,5.4-10.5,7.5c-4.7,2.1-10.5,3.2-17.4,3.2c-6.8,0-13.1-1.2-18.8-3.5c-5.8-2.3-10.7-5.6-14.9-9.9
		c-4.1-4.3-7.4-9.4-9.7-15.5c-2.3-6-3.5-12.7-3.5-20c0-7.3,1.2-13.9,3.5-19.9c2.3-6,5.6-11.1,9.9-15.3c4.3-4.2,9.4-7.5,15.4-9.8
		C754.1,144.5,760.7,143.4,768,143.4z M794.2,192c0-8.8-2.4-15.6-7.1-20.5c-4.7-4.9-11-7.3-18.9-7.3c-7.9,0-14.3,2.4-19,7.3
		c-4.8,4.9-7.2,11.7-7.2,20.5c0,8.8,2.4,15.6,7.2,20.5c4.8,4.9,11.1,7.3,19,7.3c7.9,0,14.2-2.5,18.9-7.3
		C791.9,207.6,794.2,200.8,794.2,192z"/>
	<path class="st1" d="M847.9,192c0,8.8,2.4,15.6,7.1,20.5c4.7,4.9,11,7.3,18.9,7.3c5.8,0,10.7-1.3,14.8-4c4.1-2.6,7.1-6.3,9.1-11.1
		h23.6c-2.5,11.1-7.9,19.8-16.2,26.2s-18.7,9.6-31.1,9.6c-7.3,0-13.9-1.2-20-3.5c-6-2.3-11.2-5.6-15.4-9.9
		c-4.3-4.3-7.6-9.4-9.9-15.5c-2.3-6-3.5-12.7-3.5-20c0-7.3,1.2-13.9,3.5-19.9c2.3-6,5.6-11.1,9.9-15.3c4.3-4.2,9.4-7.5,15.4-9.8
		c6-2.3,12.7-3.5,20-3.5c12.3,0,22.6,3.2,30.9,9.5c8.3,6.3,13.7,14.9,16.2,25.7h-23.6c-2-4.6-5.1-8.2-9.1-10.7
		c-4.1-2.5-8.9-3.8-14.6-3.8c-7.9,0-14.2,2.4-18.9,7.3C850.3,176.3,847.9,183.2,847.9,192z"/>
	<path class="st1" d="M976.8,240.2c-15.6,0-27.4-3.8-35.3-11.4c-8-7.6-12-18.7-12-33.3V107h22.6v88.4c0,8.7,1.9,14.9,5.7,18.6
		c3.8,3.7,10.1,5.6,19,5.6V240.2z M973.6,144.7v20.7h-36v-20.7H973.6z"/>
	<path class="st1" d="M980,191.8c0-7.3,1.2-13.9,3.5-19.9c2.3-6,5.6-11.1,9.9-15.3c4.3-4.2,9.4-7.5,15.5-9.8c6-2.3,12.7-3.5,20-3.5
		c7.3,0,13.9,1.2,19.9,3.5c6,2.3,11.1,5.6,15.4,9.8c4.3,4.2,7.6,9.3,9.9,15.3c2.3,6,3.5,12.6,3.5,19.9c0,7.3-1.2,13.9-3.5,20
		c-2.3,6-5.6,11.2-9.9,15.5c-4.3,4.3-9.4,7.6-15.4,9.9c-6,2.3-12.6,3.5-19.9,3.5c-7.3,0-13.9-1.2-20-3.5c-6-2.3-11.2-5.6-15.5-9.9
		c-4.3-4.3-7.6-9.4-9.9-15.5C981.1,205.7,980,199.1,980,191.8z M1002.6,192c0,8.8,2.4,15.6,7.1,20.5s11,7.3,18.9,7.3
		s14.3-2.5,19-7.3c4.8-4.9,7.2-11.7,7.2-20.5c0-8.8-2.4-15.6-7.2-20.5c-4.8-4.9-11.1-7.3-19-7.3s-14.2,2.4-18.9,7.3
		C1005,176.3,1002.6,183.2,1002.6,192z"/>
	<path class="st1" d="M1086.1,186.1c0-14.3,4.2-25.1,12.6-32.3c8.4-7.2,19.8-10.8,34.1-10.8v20.7c-7.5,0-13.4,1.9-17.7,5.6
		c-4.3,3.7-6.4,9.3-6.4,16.9v52.8h-22.6V186.1z"/>
</g>
<g id="Canvas" transform="translate(-1640 -2453)">
	<g id="Group_2_">
		<g id="Group_1_">
			<g id="Group">
				<g id="g">
					<g id="path">
						<g id="path9_fill">
							<g transform="translate(1640.54 2474.36)">
								<g id="path0_fill">
									<path class="st5" d="M1728.2,2526.3c0,0.9-0.1,1.2-0.3,1.4c-0.2,0.2-0.5,0.3-0.8,0.3l0.1,0.5c0.4,0,0.9-0.1,1.2-0.4
										c0.2-0.2,0.3-0.5,0.4-0.7s0.1-0.5,0.1-0.8v-3.4h-0.7V2526.3L1728.2,2526.3z"/>
								</g>
							</g>
						</g>
					</g>
					<g id="path_1_">
						<g id="path10_fill">
							<g transform="translate(1645.68 2474.37)">
								<g id="path1_fill">
									<path class="st5" d="M1733.3,2525.9c0,0.4,0,0.7,0,1h-0.6l0-0.6c-0.1,0.2-0.3,0.4-0.5,0.5s-0.5,0.2-0.7,0.2
										c-0.6,0-1.3-0.3-1.3-1.7v-2.2h0.7v2.1c0,0.7,0.2,1.2,0.8,1.2c0.1,0,0.3,0,0.4-0.1c0.1,0,0.2-0.1,0.3-0.2
										c0.1-0.1,0.2-0.2,0.2-0.3s0.1-0.2,0.1-0.4v-2.3h0.7L1733.3,2525.9L1733.3,2525.9z"/>
								</g>
							</g>
						</g>
					</g>
					<g id="path_2_">
						<g id="path11_fill">
							<g transform="translate(1653.39 2474.26)">
								<g id="path2_fill">
									<path class="st5" d="M1734.6,2524.4c0-0.5,0-0.9,0-1.2h0.6l0,0.6c0.1-0.2,0.3-0.4,0.6-0.6c0.2-0.1,0.5-0.2,0.8-0.2
										c0.9,0,1.6,0.8,1.6,1.9c0,1.4-0.8,2-1.7,2c-0.2,0-0.5,0-0.7-0.1c-0.2-0.1-0.4-0.3-0.5-0.5l0,0v2.1h-0.7V2524.4
										L1734.6,2524.4z M1735.3,2525.4c0,0.1,0,0.2,0,0.3c0.1,0.2,0.2,0.4,0.4,0.6c0.2,0.1,0.4,0.2,0.7,0.2c0.7,0,1.2-0.6,1.2-1.5
										c0-0.8-0.4-1.4-1.1-1.4c-0.3,0-0.6,0.2-0.8,0.4c-0.2,0.2-0.3,0.5-0.3,0.8V2525.4z"/>
								</g>
							</g>
						</g>
					</g>
					<g id="path_3_">
						<g id="path12_fill">
							<g transform="translate(1660.43 2474.39)">
								<g id="path3_fill">
									<path class="st5" d="M1739.5,2523.2l0.8,2.2c0.1,0.2,0.2,0.5,0.2,0.8c0.1-0.2,0.1-0.5,0.2-0.8l0.8-2.2h0.7l-1,2.7
										c-0.5,1.3-0.8,2-1.3,2.4c-0.2,0.2-0.5,0.4-0.8,0.4l-0.2-0.6c0.2-0.1,0.4-0.2,0.6-0.3c0.3-0.2,0.5-0.5,0.6-0.8
										c0-0.1,0-0.1,0.1-0.2c0-0.1,0-0.1,0-0.2l-1.4-3.5L1739.5,2523.2L1739.5,2523.2z"/>
								</g>
							</g>
						</g>
					</g>
					<g id="path_4_">
						<g id="path13_fill">
							<g transform="translate(1667.55 2472.54)">
								<g id="path4_fill">
									<path class="st5" d="M1744.1,2522.1v1.1h1v0.5h-1v2c0,0.5,0.1,0.7,0.5,0.7c0.1,0,0.3,0,0.4,0l0,0.5
										c-0.2,0.1-0.4,0.1-0.6,0.1c-0.1,0-0.3,0-0.4-0.1c-0.1,0-0.2-0.1-0.3-0.2c-0.2-0.3-0.3-0.6-0.3-1v-2.1h-0.6v-0.5h0.6v-0.9
										L1744.1,2522.1z"/>
								</g>
							</g>
						</g>
					</g>
					<g id="path_5_">
						<g id="path14_fill">
							<g transform="translate(1672.47 2474.29)">
								<g id="path5_fill">
									<path class="st5" d="M1746.4,2525.2c0,0.2,0,0.4,0.1,0.5c0.1,0.2,0.2,0.3,0.3,0.4c0.1,0.1,0.3,0.2,0.4,0.3s0.3,0.1,0.5,0.1
										c0.4,0,0.7-0.1,1-0.2l0.1,0.5c-0.4,0.2-0.8,0.2-1.3,0.2c-0.3,0-0.5,0-0.7-0.1c-0.2-0.1-0.5-0.2-0.6-0.4
										c-0.2-0.2-0.3-0.4-0.4-0.6c-0.1-0.2-0.1-0.5-0.1-0.7c0-1.1,0.7-2,1.8-2c1.2,0,1.6,1.1,1.6,1.8c0,0.1,0,0.2,0,0.3
										L1746.4,2525.2L1746.4,2525.2z M1748.4,2524.7c0-0.1,0-0.3,0-0.4c0-0.1-0.1-0.3-0.2-0.4c-0.1-0.1-0.2-0.2-0.3-0.2
										s-0.3-0.1-0.4-0.1c-0.3,0-0.5,0.1-0.7,0.4c-0.2,0.2-0.3,0.5-0.3,0.8H1748.4z"/>
								</g>
							</g>
						</g>
					</g>
					<g id="path_6_">
						<g id="path15_fill">
							<g transform="translate(1679.98 2474.24)">
								<g id="path6_fill">
									<path class="st5" d="M1750.1,2524.4c0-0.4,0-0.8,0-1.2h0.6v0.7h0c0.1-0.2,0.2-0.4,0.4-0.6c0.2-0.1,0.4-0.2,0.6-0.2
										c0.1,0,0.1,0,0.2,0v0.6c-0.1,0-0.2,0-0.2,0c-0.2,0-0.5,0.1-0.6,0.3c-0.2,0.2-0.3,0.4-0.3,0.6c0,0.1,0,0.2,0,0.3v2h-0.7
										L1750.1,2524.4L1750.1,2524.4z"/>
								</g>
							</g>
						</g>
					</g>
				</g>
			</g>
			<g id="g_1_">
				<g id="path_7_">
					<g id="path16_fill">
						<g transform="translate(1673.48 2453.69)">
							<g id="path7_fill">
								<path class="st6" d="M1749.8,2512.8c0,0.3-0.1,0.7-0.2,1s-0.4,0.5-0.8,0.7c-0.3,0.2-0.7,0.2-1,0.2c-0.3,0-0.7-0.2-0.9-0.4
									c-0.3-0.2-0.4-0.5-0.5-0.9c-0.1-0.3-0.1-0.7,0.1-1c0.1-0.3,0.3-0.6,0.6-0.8c0.3-0.2,0.6-0.3,1-0.3c0.2,0,0.5,0,0.7,0.1
									c0.2,0.1,0.4,0.2,0.6,0.3c0.2,0.2,0.3,0.3,0.4,0.5S1749.8,2512.6,1749.8,2512.8L1749.8,2512.8z"/>
							</g>
						</g>
					</g>
				</g>
				<g id="path_8_">
					<g id="path17_fill">
						<g transform="translate(1643.21 2484.27)">
							<g id="path8_fill">
								<path class="st2" d="M1739.6,2533c-4.7,0-8.7-1.7-10.9-4.1c0.8,2.2,2.3,4.1,4.2,5.5s4.2,2.1,6.6,2.1c2.4,0,4.7-0.7,6.6-2.1
									c1.9-1.4,3.4-3.3,4.2-5.5C1748.3,2531.4,1744.2,2533,1739.6,2533z"/>
							</g>
						</g>
					</g>
				</g>
				<g id="path_9_">
					<g id="path18_fill">
						<g transform="translate(1643.21 2457.88)">
							<g id="path9_fill_1_">
								<path class="st2" d="M1739.6,2517c4.7,0,8.7,1.7,10.9,4.1c-0.8-2.2-2.3-4.1-4.2-5.5c-1.9-1.4-4.2-2.1-6.6-2.1
									c-2.4,0-4.7,0.7-6.6,2.1s-3.4,3.3-4.2,5.5C1730.8,2518.7,1734.9,2517,1739.6,2517z"/>
							</g>
						</g>
					</g>
				</g>
				<g id="path_10_">
					<g id="path19_fill">
						<g transform="translate(1643.28 2496.09)">
							<g id="path10_fill_1_">
								<path class="st7" d="M1733.2,2537.8c0,0.4-0.1,0.9-0.3,1.3c-0.2,0.4-0.5,0.7-0.9,0.9c-0.4,0.2-0.8,0.3-1.3,0.2
									c-0.4-0.1-0.8-0.3-1.2-0.5s-0.6-0.7-0.7-1.1c-0.1-0.4-0.1-0.9,0.1-1.3c0.1-0.4,0.4-0.8,0.8-1c0.4-0.3,0.8-0.4,1.2-0.4
									c0.3,0,0.6,0,0.8,0.1c0.3,0.1,0.5,0.2,0.7,0.4c0.2,0.2,0.4,0.4,0.5,0.7C1733.1,2537.3,1733.1,2537.6,1733.2,2537.8
									L1733.2,2537.8z"/>
							</g>
						</g>
					</g>
				</g>
				<g id="path_11_">
					<g id="path20_fill">
						<g transform="translate(1641.87 2458.43)">
							<g id="path11_fill_1_">
								<path class="st8" d="M1729.2,2516.5c-0.3,0-0.5-0.1-0.7-0.2c-0.2-0.1-0.4-0.3-0.5-0.6c-0.1-0.2-0.1-0.5-0.1-0.7
									c0-0.2,0.2-0.5,0.3-0.7c0.2-0.2,0.4-0.3,0.6-0.4c0.2-0.1,0.5,0,0.7,0s0.4,0.2,0.6,0.4c0.1,0.2,0.2,0.4,0.2,0.7
									c0,0.3-0.1,0.7-0.3,0.9C1729.9,2516.3,1729.6,2516.4,1729.2,2516.5z"/>
							</g>
						</g>
					</g>
				</g>
			</g>
		</g>
	</g>
</g>
</svg>
